<svg width="96" height="96" viewBox="0 0 96 96" fill="none" xmlns="http://www.w3.org/2000/svg">
<g clip-path="url(#clip0_1_314)">
<path d="M70.365 38.724C70.2555 36.3285 69.876 34.6935 69.3195 33.2625C68.745 31.7835 67.9755 30.528 66.7245 29.277C65.4735 28.026 64.2195 27.2565 62.739 26.682C61.308 26.1255 59.6715 25.746 57.2775 25.6365C54.8775 25.5255 54.111 25.5 48 25.5C41.889 25.5 41.1225 25.5255 38.724 25.635C36.3285 25.7445 34.6935 26.124 33.2625 26.6805C31.7835 27.255 30.528 28.0245 29.277 29.2755C28.026 30.5265 27.2565 31.7805 26.682 33.261C26.1255 34.692 25.746 36.3285 25.6365 38.7225C25.5255 41.1225 25.5 41.889 25.5 48C25.5 54.111 25.5255 54.8775 25.635 57.276C25.7445 59.6715 26.124 61.3065 26.6805 62.7375C27.255 64.2165 28.0245 65.472 29.2755 66.723C30.5265 67.974 31.7805 68.7435 33.261 69.318C34.692 69.8745 36.3285 70.254 38.7225 70.3635C41.1225 70.4745 41.889 70.5 48 70.5C54.111 70.5 54.8775 70.4745 57.276 70.365C59.6715 70.2555 61.3065 69.876 62.7375 69.3195C64.2165 68.745 65.472 67.9755 66.723 66.7245C67.974 65.4735 68.7435 64.2195 69.318 62.739C69.8745 61.308 70.254 59.6715 70.3635 57.2775C70.4745 54.8775 70.5 54.111 70.5 48C70.5 41.889 70.4745 41.1225 70.365 38.724ZM66.315 57.0915C66.2145 59.2845 65.8485 60.477 65.541 61.269C65.133 62.319 64.6455 63.069 63.858 63.8565C63.0705 64.644 62.3205 65.1315 61.2705 65.5395C60.477 65.847 59.286 66.2145 57.093 66.3135C54.7215 66.4215 54.009 66.444 48.0015 66.444C41.994 66.444 41.2815 66.4215 38.91 66.3135C36.717 66.213 35.5245 65.847 34.7325 65.5395C33.6825 65.1315 32.9325 64.644 32.145 63.8565C31.3575 63.069 30.87 62.319 30.462 61.269C30.1545 60.4755 29.787 59.2845 29.688 57.0915C29.58 54.7185 29.5575 54.0075 29.5575 48C29.5575 41.9925 29.58 41.28 29.688 38.9085C29.7885 36.7155 30.1545 35.523 30.462 34.731C30.87 33.681 31.3575 32.931 32.145 32.1435C32.9325 31.356 33.6825 30.8685 34.7325 30.4605C35.526 30.153 36.717 29.7855 38.91 29.6865C41.283 29.5785 41.994 29.556 48.0015 29.556C54.009 29.556 54.7215 29.5785 57.093 29.6865C59.286 29.787 60.4785 30.153 61.2705 30.4605C62.3205 30.8685 63.0705 31.356 63.858 32.1435C64.6455 32.931 65.133 33.681 65.541 34.731C65.8485 35.5245 66.216 36.7155 66.315 38.9085C66.423 41.2815 66.4455 41.9925 66.4455 48C66.4455 54.0075 66.423 54.72 66.315 57.0915ZM48 36.4455C41.619 36.4455 36.4455 41.619 36.4455 48C36.4455 54.381 41.619 59.5545 48 59.5545C54.381 59.5545 59.5545 54.381 59.5545 48C59.5545 41.619 54.381 36.4455 48 36.4455ZM48 55.5C43.8585 55.5 40.5 52.1415 40.5 48C40.5 43.8585 43.8585 40.5 48 40.5C52.1415 40.5 55.5 43.8585 55.5 48C55.5 52.1415 52.1415 55.5 48 55.5ZM60.0105 33.2895C58.5195 33.2895 57.3105 34.4985 57.3105 35.9895C57.3105 37.4805 58.5195 38.6895 60.0105 38.6895C61.5015 38.6895 62.7105 37.4805 62.7105 35.9895C62.7105 34.4985 61.5015 33.2895 60.0105 33.2895Z" fill="black"/>
<path d="M65.5395 34.7295C65.1315 33.6795 64.644 32.9295 63.8565 32.142C63.069 31.3545 62.319 30.867 61.269 30.459C60.4755 30.1515 59.2845 29.784 57.0915 29.6835C54.7185 29.5755 54.0075 29.553 48 29.553C41.9925 29.553 41.28 29.5755 38.9085 29.6835C36.7155 29.784 35.523 30.15 34.731 30.459C33.681 30.867 32.931 31.3545 32.1435 32.142C31.356 32.9295 30.8685 33.6795 30.4605 34.7295C30.153 35.523 29.7855 36.714 29.6865 38.907C29.5785 41.28 29.556 41.991 29.556 47.9985C29.556 54.006 29.5785 54.7185 29.6865 57.09C29.787 59.283 30.153 60.4755 30.4605 61.2675C30.8685 62.3175 31.356 63.0675 32.1435 63.855C32.931 64.6425 33.681 65.13 34.731 65.538C35.5245 65.8455 36.7155 66.213 38.9085 66.312C41.28 66.42 41.9925 66.4425 48 66.4425C54.0075 66.4425 54.72 66.42 57.0915 66.312C59.2845 66.2115 60.477 65.8455 61.269 65.538C62.319 65.13 63.069 64.6425 63.8565 63.855C64.644 63.0675 65.1315 62.3175 65.5395 61.2675C65.847 60.474 66.2145 59.283 66.3135 57.09C66.4215 54.717 66.444 54.006 66.444 47.9985C66.444 41.991 66.4215 41.2785 66.3135 38.907C66.2145 36.714 65.8485 35.523 65.5395 34.7295ZM48 59.5545C41.619 59.5545 36.4455 54.381 36.4455 48C36.4455 41.619 41.619 36.4455 48 36.4455C54.381 36.4455 59.5545 41.619 59.5545 48C59.5545 54.381 54.381 59.5545 48 59.5545ZM60.0105 38.6895C58.5195 38.6895 57.3105 37.4805 57.3105 35.9895C57.3105 34.4985 58.5195 33.2895 60.0105 33.2895C61.5015 33.2895 62.7105 34.4985 62.7105 35.9895C62.7105 37.4805 61.5015 38.6895 60.0105 38.6895ZM0 0V96H96V0H0ZM70.365 57.276C70.2555 59.6715 69.876 61.3065 69.3195 62.7375C68.745 64.2165 67.9755 65.472 66.7245 66.723C65.4735 67.974 64.2195 68.7435 62.739 69.318C61.308 69.8745 59.673 70.254 57.2775 70.3635C54.8775 70.4745 54.111 70.5 48 70.5C41.889 70.5 41.1225 70.4745 38.724 70.365C36.3285 70.2555 34.6935 69.876 33.2625 69.3195C31.7835 68.745 30.528 67.9755 29.277 66.7245C28.026 65.4735 27.2565 64.2195 26.682 62.739C26.1255 61.308 25.746 59.673 25.6365 57.2775C25.5255 54.8775 25.5 54.111 25.5 48C25.5 41.889 25.5255 41.1225 25.635 38.7225C25.7445 36.327 26.124 34.692 26.6805 33.261C27.255 31.782 28.0245 30.5265 29.2755 29.2755C30.5265 28.0245 31.7805 27.255 33.261 26.6805C34.692 26.124 36.3285 25.7445 38.7225 25.635C41.1225 25.5255 41.889 25.5 48 25.5C54.111 25.5 54.8775 25.5255 57.276 25.635C59.6715 25.7445 61.3065 26.124 62.7375 26.6805C64.2165 27.255 65.472 28.0245 66.723 29.2755C67.974 30.5265 68.7435 31.7805 69.318 33.261C69.8745 34.692 70.254 36.327 70.3635 38.7225C70.4745 41.1225 70.5 41.889 70.5 48C70.5 54.111 70.4745 54.8775 70.365 57.276ZM48 40.5C43.8585 40.5 40.5 43.8585 40.5 48C40.5 52.1415 43.8585 55.5 48 55.5C52.1415 55.5 55.5 52.1415 55.5 48C55.5 43.8585 52.1415 40.5 48 40.5Z" fill="black"/>
</g>
<defs>
<clipPath id="clip0_1_314">
<rect width="96" height="96" fill="white"/>
</clipPath>
</defs>
</svg>
